<?xml version="1.0" encoding="UTF-8"?>
<svg id="_レイヤー_1" data-name="レイヤー 1" xmlns="http://www.w3.org/2000/svg" viewBox="0 0 664.6005755927 221.8007813505">
  <defs>
    <style>
      .cls-1 {
        fill: #fff;
      }
    </style>
  </defs>
  <g>
    <path class="cls-1" d="M54.4735677303,219.7358524039c-1.6019618637-.5511957474-2.1124248106.9337705519-2.5,1-1.2675315185.2165977472-4.7417748004.2213783129-6,0-.391486196-.0688800015-.8937434771-1.5494407936-2.5-1,.5494407936-1.6062565229-.9311199985-2.108513804-1-2.5-.3157793754-1.7947628317.256306738-4.1253970174,0-6-.1241291103-.9078684478-1.8482399816-5.0432545839-2-6-.218669637-1.3785658115.1448599679-3.0536412262,0-4.5l-4,3.5c-.6989989064,2.4904642867-1.8930860052,3.6046275878-3.5,4.5-1.8989672003,1.0581044464-4.4556462218,4.7036608978-4.5,7-1.6502771949.2966476774-3.0868963067-1.2916655059-4-2.5-1.3171354816-1.7430005459-2.6815971387-5.2650365402-4-7-1.1701672166-1.5398915023-3.3264210896-3.4603273111-5-4.5-.1437655725,1.4471626025.2170203793,3.1193212417,0,4.5-.0595045562.3785666441-.9604995514.636560319-1,1-.2728292439,2.5102746154.4163865572,5.6639735873,0,8-.0668422451.3750006992-.9004420797.6017744064-1,1-.1646403554.6585513545.1995823444,1.4451854667,0,2-.2125859931.590963088-1.5300829487.8537291041-1,2.5l-2.5,1c-1.6642342213-1.2779796656-6.9545672288-3.5202932872-7.5-5.5-.5885822974-2.1363225436-.1692482311-12.0329529805,0-15,.4671149583-8.188871672,2.8301086095-16.599619675,3-25l1-4.5c1.7132429093-.4090530292,1.9847014692.6548694865,3,1.5,5.6195944063,4.6777283354,8.7016034477,10.8753528134,13,16,1.6231567524,1.9351647953,3.8110267055,3.587877745,5.5,5.5,1.0659816922-1.2257748753,2.4840948243-2.2548515125,3.5-3.5,4.4276016816-5.4267087804,8.5352665928-12.1533975125,13.5-17.5,2.0474820106.0031890946,2.4856402525-2.7538453161,5-2,3.4854134829,1.044982776,2.1984141681,6.7088518468,2.5,9.5.5281287383,4.8877811774,1.7874288006,12.1503746069,2,17,.3129269819,7.1391545135-.2289904896,14.3635857878,0,21.5Z"/>
    <path class="cls-1" d="M520.4735677303,219.7358524039c-1.8060775676-.2548524061-2.6617335501,1.5634856907-4.5,1-.4070119083-.1247617756-.6188988633-.9118368393-1-1-.8949374238-.2070330007-2.1652947583.2299816335-3,0-1.3724533789-.3781443487-2.5586385892-3.6008390461-3.5-4.5.3713054016-8.8990877386-.5047510926-18.1513714067,0-27,.02004078-.3513284494.9760345098-.6458524673,1-1,.3266230619-4.8266382371-.079329499-7.3408655912,1-12,.3667007947-1.5829348609-.703746588-3.204295922,1.5-4.5,2.1688515405,1.272274299,3.8448379307,2.5983642086,5.5,4.5,2.7573760503,3.1679828125,5.8091320834,7.4832040223,8,11,2.8224978856,1.6310450917,4.9997046279,7.322824783,7.5,8.5,1.9897905396.9368221596,1.3456743918-2.2053556312,2.5-2.5,2.4482814664-4.1763656685,5.7916483696-9.2582324546,9-13,2.5421997749-2.9648622431,5.8708588297-5.563440682,8.5-8.5.6459947908.8784168752,2.0004014438,1.6605619524,2.5,2.5.1281366865.2152984804-.1412051183.6899450015,0,1,1.3006984922,2.8560442708.5996319233,3.34067413,1,6,1.4181702193,9.4197738826.2613658644,19.1762196016,1,29,.0267823325.3562030785.965932604.6382597019,1,1,.2082258583,2.2110197122.5697794156,8.9297253363-1.5,9.5-.8086839228.2228121261-9.1641242739.3358757261-9.5,0-.2075401231-.2075401231.1994778698-1.7618313163,0-2.5-1.0186509619-3.7695221053-.6072467733-5.2399646721-1-9-.0379718271-.3635244772-.9515063115-.6287291275-1-1-.2254077977-1.7257369407.1531505337-3.7222251981,0-5.5-1.3297066885-.2674966104-2.3311858447.4437888689-3,1.5-.8330200071,1.3155298777-2.1158342283,3.8210420656-3,5-1.726189235,2.3017227765-3.2611569899,4.4576037217-5.5,6.5-1.4219570179.4369496277-2.078715809-1.4890070478-3-2-.7197048734-.3991863982-1.9116884055.8648458616-1.5-1.5l-7-8c-.5163421838-1.0378723117-2,.8881965995-2,1v15.5Z"/>
    <path class="cls-1" d="M293.4735677303,219.2358524039c-.0433031641.1571508033-1.3428491967,1.4566968359-1.5,1.5-3.5930572305.9900728712-8.3590287826-.5300141607-10.5-3.5v-40c1.7436159895-1.1116950295.2728019736-4.8606462743,2.5-5.5,2.3072366604-.6623301285,2.6072044696,1.053077521,4,2,5.4149005579,3.6814384796,10.7378956728,8.3097311737,15.5,13.5,1.415187191,1.5424277706,2.6184620762,4.0191636566,5,6,1.0154101318.8445640409,1.2864168937,1.9093344643,3,1.5.6248137795-.6820797362-.375220706-15.5088876535,0-18.5.0458524833-.3655180182.9223180261-.6109513168,1-1,.2054560902-1.0289700088-.1300325707-2.3801045198,0-3.5,2.5952666796.3409744753,10.2925078649-1.0675481123,11,1.5.6861937218,2.4902543896-.2024251196,8.7409829363,0,12,.0218981025.352556491.9814232055.64984458,1,1,.5835733447,10.9998185793-.4309918802,22.4574902705,0,33.5-1.6035564633-.5510473711-2.1078474383.9313214505-2.5,1-2.3862216983.4179043081-4.0861266342-.3173366876-6-1l-22.5-22v21.5Z"/>
    <path class="cls-1" d="M119.7923060574,196.0883987686c0,13.4906114837-10.9363014228,24.4269129064-24.4269129064,24.4269129064s-24.4269129064-10.9363014228-24.4269129064-24.4269129064,10.9363014228-24.4269129064,24.4269129064-24.4269129064,24.4269129064,10.9363014228,24.4269129064,24.4269129064ZM90.9735677303,184.7358524039c-.4580545851.1261961929-1.3201924974,1.537825741-2,2-.2389574569.1624577327-.7925536099-.15077865-1,0-.738709053.5369172907-3.1004111303,2.8285894526-3.5,3.5-.1281359604.21530088.141202996.6899433223,0,1-.1974064557.433469484-.9203971649.6446252615-1,1-.2353215473,1.0505572222-.2028337126,4.862775985,0,6,.0654089749.3667272865.8675286364.5852454605,1,1,.1899644859.5947597332-.1796049774,1.3742562665,0,2,.0877866886.3058488194,3.8957070497,4.1000804197,4.5,4.5.4154016736.2749118005,2.3294949948.7336632445,3,1,.4256608291.1690802056.6347471936.9192473155,1,1,.8948303654.1978354523,5.208437184.2180792793,6,0,.4580545851-.1261961929,1.3201924974-1.537825741,2-2,.2389574569-.1624577327.7925536099.15077865,1,0,2.5150896425-1.8280473365,3.41907689-3.7787670475,4.5-6.5.1690802056-.4256608291.9192473155-.6347471936,1-1,.7794077012-3.5253422479-.8904753288-6.0717523781-2-9-1.3992748778-.890288454-3.2701100753-2.7659839597-4.5-3.5-.2145052211-.1280198088-.68931365.1413415659-1,0-.4334222846-.1971782295-.6445479024-.9204030988-1-1-1.0145681501-.2271937102-7.1068382641-.2460702597-8,0Z"/>
    <path class="cls-1" d="M413.9735677303,171.7358524039c.3709672433.0542787422.6119385115.922423268,1,1,1.9035603393.3805376074,4.0732110334.4960626314,6,1,2.1995820342,1.4981212259,5.8760008352,4.0508089697,7.5,6.5.1425440962.2149740772-.1562904763.7356202199,0,1,.3802412612.6432132232,1.9296968643,2.6748298303,2,3,.3199867859,1.4800215735.2834578273,8.4107936313,0,10-.0654111219.3667274688-.8675242585.5852439289-1,1-.1899714464.5947640665.179620066,1.3742737524,0,2-.1340131097.4668494012-1.5365267588,1.3182048786-2,2-.1670567413.2457498322.1475503041.8047565376,0,1-1.2348486998,1.633992808-4.7864479074,3.2534336852-5,4-.7759812768,2.7127876626,4.2319408702,5.7785640308,6,8,.1577869379.1982476567-.1656462133.7846851105,0,1,1.7733780424,2.3051217995,3.8801500912,2.6227862711,3,6.5-1.7477988691-.7837847558-3.1800610604.9538145863-3.5,1-2.4513002342.3538622576-5.4480190724-.2490502813-8,0-.4170160869-.5456277389-1.161149415-.9696998531-1.5-1.5-1.0343942539-1.6188238978-2.8472337472-4.6279316694-4-6-.7118811524-.8473093153-5.1275162493-5.3881703977-5.5-5.5-.5134618882-.1541550166-2.5066008227-.3530286314-2.5.5.3186731322,2.9099608087-1.6554342816,5.0649905626-1,8,.0894814418.4006944457,1.3455479699.6647511912,1,2-.1249127099.4826813108-1.5451395798.8700684879-1,2.5-1.7720591775-.1609050871-3.7868161929.2367932114-5.5,0-.3688715053-.0509847618-.6115722815-.9224418419-1-1-.9473062788-.1891505848-3.2620275501.2379724499-3.5,0-.174713007-.174713007.2248448056-.9601348023,0-1.5-.1802024941-.4326764627-.938198839-.6487698177-1-1-.3622472561-2.0587342977.2326079655-4.7878739222,0-7-.0383523755-.3647351016-.970871655-.6422179957-1-1-.6034991984-7.4127504486-1.1427978-28.3129175656,0-35,.0662384693-.3875944673,1.5512111147-.8980725532,1-2.5,6.0714691709.6268452627,13.6466917018-.8564373747,19.5,0ZM404.4735677303,194.7358524039c2.9468998475-.5068980248,7.9366010781.706342085,10.5,0,.2385951415-.0657446597,3.4342553403-3.2614048585,3.5-3.5.5546192084-2.0127786676-.4518549659-5.9356356237-2.5-6.5-2.5633989219-.706342085-7.5531001525.5068980248-10.5,0-.1300308068,1.1199138722.205453729,2.4710424708,0,3.5-.0775609471.3884423069-.9491317025.6312036912-1,1-.2363716662,1.7136999334.160618895,3.7277768163,0,5.5Z"/>
    <path class="cls-1" d="M262.8255989051,196.042942765c0,13.1785233291-10.6833039858,23.8618273149-23.8618273149,23.8618273149s-23.8618273149-10.6833039858-23.8618273149-23.8618273149,10.6833039858-23.8618273149,23.8618273149-23.8618273149,23.8618273149,10.6833039858,23.8618273149,23.8618273149ZM248.4735677303,187.7358524039c-.1867454853-.1867454853-1.0270063312.263554444-1.5,0-.6865801038-.3825658766-1.292186384-1.5734740725-2-2-.2136865563-.1287667467-.691583734.1428554793-1,0-.4118796689-.1907787429-.608526724-.8430386812-1-1-.5523129014-.2214500112-1.3747668051.2013715294-2,0-.4053550998-.1305544508-.6108116599-.8927655938-1-1-1.3172003203-.3629327491-1.6146752414.9221986251-2,1-1.4539433409.2935674088-3.0182639992-.6519369173-4,1-4.3991678599,1.4862703387-7.3190337334,7.9078718572-6.5,12.5.0654080074.3667272044.8675306095.5852461509,1,1,.1899613488.5947577799-.1795981765,1.3742483859,0,2,.0682753525.2378833287,2.926396344,3.0729684959,3.5,3.5.2043083702.1521017338.7656920379-.1638639586,1,0,2.6770051461,1.872171378,4.0517384457,3.8843760831,8,3,.355374986-.0796008911.5665308845-.8025972022,1-1,.3100581297-.1412011608.7846970449.1281353324,1,0,1.020083036-.6070918945,2.0064250788-2.4463750717,3-3,.4729936688-.263554444,1.3132545147.1867454853,1.5,0,.1866687573-.1866687573-.2632829395-1.0263777989,0-1.5.6573060476-1.1824341435,2.422985431-2.5127782708,3-4-.3404037433-2.0422304386.4856692682-5.2370564451,0-7-.1388851518-.5041428381-1.6163397212-1.3114558037-2-2-.263554444-.4729936688.1867454853-1.3132545147,0-1.5Z"/>
    <path class="cls-1" d="M610.4735677303,171.7358524039v13c-3.7127193799-.2785742036-7.8534365064.3885468863-11.5,0-.3634883966-.0387302415-.6240310846-.9441420291-1-1-3.0011973187-.4458900338-4.092019773.4844131108-6,1-.7384027952.1995360302-2.2924655879-.2075344121-2.5,0-.3307859993.3307859993.6006627232,4.644038767-1,6h19v11h-18v6h22c-.5494933316,1.6061396047.931093931,2.1084555176,1,2.5.2924329121,1.6616895279.2380960425,6.2474738113,0,8-.3892467276,2.8650836735-3.0250614892,2.9527462372-5.5,2.5-.3848154082-.0703951744-.6339460724-.9547963257-1-1-8.0130973415-.9895302714-17.7685958749.7286245254-26,0-.1704219963-.0469717374-2.4512141814-2.3300884205-2.5-2.5-.1796511446-.6256902238.1899857851-1.4052270098,0-2-.1324847606-.4147592261-.9345844536-.6332721551-1-1-.7581487245-4.2502778513-.1914749883-14.1792716195,0-19,.0137421025-.3459822302.9863714089-.6540279372,1-1,.2749741349-6.9804257775-.7301053677-13.5975741404,1-20,.1821757897-.6741595098-.1250000019-2.5,0-2.5h32Z"/>
    <path class="cls-1" d="M663.4735677303,179.7358524039c-4.2455704524.4308477239-5.2153143098,5.7931102894-8.5,8-3.5837523472-2.5675312886-6.3357040125-4.8149724375-11-4-2.8772303753.1808846187-2.65927287,2.6721857111-2.5,5,1.6483604478-.5282047471,1.9100917462.7867253796,2.5,1,3.815895832,1.3795937418,9.2070899264,1.4898676971,13,4,.8975706922.5940085963,6.0097577306,5.6762618572,6.5,6.5.1281355978.2153020781-.1412019364.689942484,0,1,.1974043438.4334692712.9203982873.6446251186,1,1,.1807789475.8070717934.1575094741,3.1353856566,0,4-.0677277577.3717769429-.883655813.5930277916-1,1-.1849851721.6470785169.2160451814,1.4581554287,0,2-.2998686459.7520750835-2.4739931481,4.297015572-3,5-.6733114996.8998504443-3.6937220354,4.0201490394-4.5,4.5-.2168404779.1290511662-.6934443712-.1419944196-1,0-.4122289104.1909415433-.6089306309.8440721615-1,1-.5418445713.2160451814-1.3529214831-.1849851721-2,0-.40474103.1157063434-.6220300254.9215532209-1,1-1.1861820212.2461892881-2.8413853049-.2595223212-4,0-.4021571374.0900806405-.6828446413,1.3629303474-2,1-.4007938931-.1104351631-.6168656537-.9141803437-1-1-1.1586146951-.2595223212-2.8138179788.2461892881-4,0-1.0655578872-.2211540329-5.7452006192-2.3238386017-7-3-1.8166381942-.9789139527-3.4026780633-3.0001388951-5.5-3l2-3.5c.3659652388-1.273948188,3.3531365393-6.1714169843,4.5-6.5,2.0322516052-.5822518408,4.0405249154,2.0054400356,6,3,2.2457272239-.2864652052,8.7666242778.9860548492,9.5-1.5.1531875734-.5192873149.3538379263-2.5047293734-.5-2.5-1.1052979927.5480244191-1.5515697377-.8975738926-2-1-1.9655415384-.4489500056-5.1264770196-.4889623619-7-1-.3279863035-.0894642594-5.3823006129-2.6064410696-6-3-2.0916074044-1.332639776-2.5578240865-4.0340623591-4.5-5.5.6985110812-1.5691007829-.9480583521-2.7087659615-1-3-.2197199424-1.2319579516-.2197199424-4.7680420484,0-6,.0519416479-.2912340385,1.6985110812-1.4308992171,1-3,1.9363002956-1.6234897124,2.3984740723-3.9119580646,4.5-5.5.1988959709-.1502979994.7616951686.1659137945,1,0,1.0083288366-.7020238006,4.4830199425-3.851617393,5-4,.6257482835-.1796010509,1.4052413945.1899626747,2,0,.4147541409-.1324702244.6332727609-.9345915837,1-1,1.2319147171-.219720768,4.7680852829-.219720768,6,0,.3709654171.0661643255.5929729021.8840967371,1,1,3.572279735,1.0172268124,6.3702606854,2.42270781,10,4l3.5,4Z"/>
    <path class="cls-1" d="M460.4735677303,212.7358524039c.501950519,1.6467005984-.6786574074,1.8080914377-1,2.5-.2928536501.6305667306-.7104642603,2.5467560021-1,3-1.5119232917,2.3667895303-3.7599070069,3.0004399311-6.5,2.5-.3776623969-.0689747919-.6061768844-.9083953696-1-1-1.2448050322-.2895459925-3.9531110112.4850544026-4.5-1.5-.6447308112-2.3401929121.7693452834-3.2029006432,1-4,1.5024272866-5.192106373,4.5077835467-10.6842338476,7-16,2.4572582765-5.2412022067,4.7810646654-11.3759622236,8-16l5.5-11.5c1.3419942019.7366225143,1.2876593971,2.1261191538,2,3,8.2457378155,10.1156557842,11.4630525814,20.7440494678,18.5,31.5,1.8839843957,4.6506467613,4.2614554025,8.8722884669,5,14-.8262157713,1.0293881437-1.1629775611,1.3184385624-2.5,1.5-1.4455408115.1962977286-6.8832422662.3072794896-8,0-1.8853254235-.5187533663-5.1146745765-7.4812466337-7-8-3.6764352336-1.011583003-11.2816111548.7389615428-15.5,0ZM472.4735677303,203.7358524039c-.9738026591-1.5087647048-1.2323640675-2.6433403363-1-4.5l-2.5-4.5-2.5,3.5-1,5.5h7Z"/>
    <path class="cls-1" d="M378.4735677303,171.7358524039v12h-22v8h17c.1300810575,1.1193899007-.205520997,2.4706869431,0,3.5.0776483931.3888872963.9527789547.6335796931,1,1,.2624677645,2.0366664522-.1813286678,4.4057644671,0,6.5h-18v18c-2.1690643836-.3639432986-5.6184209252.5186080966-7.5,0-.2385905682-.0657612545-3.4316991601-3.262123988-3.5-3.5-.179652627-.6256885053.189986469-1.4052265843,0-2-.1324851908-.4147593766-.9345842425-.6332721372-1-1-1.0712094-6.0053165954-.419156851-23.2039150608,0-30,.0217512885-.3526689439.9735421212-.6439761541,1-1,.2089312291-2.8114309651-.5995329353-7.8248148591,0-10,.0471762203-.171161595,1.3939339812-1.5,1.5-1.5h31.5Z"/>
    <path class="cls-1" d="M145.4735677303,184.7358524039h-13c.3860430006-3.2399395122-.5398614173-7.4323380091,0-10.5.0689056553-.3915435574,1.5494924976-.8938585392,1-2.5,7.3519541335.9148309219,17.5423294556-1.2410815171,24.5,0,.281257135.0501695258,1.04807655,1.5932816178,3,1,.4113762502-.125036649.6313099559-.9342345407,1-1,1.9882929413-.3546637634,7.9764832614-.3994256688,8.5,1.5.7064631209,2.563192515-.5070045856,7.5540177016,0,10.5h-12v33.5c0,.2089362293-1.5484398293.9843741458-1,2.5-1.6061414608-.5494924976-2.1084564426.9310943447-2.5,1-2.0644492409.3633113741-7.882751256-.3332110069-8.5-2.5-.1786187482-.627022965.1896375479-1.4057766379,0-2-.1350971009-.4233225666-1-.6783487636-1-1v-30.5Z"/>
    <path class="cls-1" d="M186.4735677303,172.7358524039c.3358757261-.3358757261,8.6912042546-.2229227037,9.5,0,.406695384.1120945988.9616563408,1.1578803056,1.5,1.5l-1,44c-.125820701.4600220052-3.1846026037,2.431944184-3.5,2.5-3.3240173808.7172497871-6.436188027-.9941269676-8.5-3.5.1839074161-6.987687279-.2515316571-14.0174827836,0-21,.0124301938-.3450621021.9863799124-.6542439484,1-1,.2749747751-6.9804391348-.7300984444-13.5975949155,1-20,.1995377526-.738409728-.2075342431-2.2924657569,0-2.5Z"/>
  </g>
  <g>
    <path class="cls-1" d="M394.9735677303,1.7358524039c15.1836873076,1.0121031112,32.0311180265-1.3631041726,47,0,1.6224839795.1477474862,6.2090774251,1.6818058959,8,2,24.4619933306,4.3461745145,43.5863137567,16.0977404442,55.5,38.5,4.4012605594,8.2760431499,5.4670818965,13.3721291448,7,22,.3181941041,1.7909225749,1.8522525138,6.3775160205,2,8,.2950602604,3.240194185.331293736,8.7906487663,0,12-.0374218087.3625173524-.9433053756.623431943-1,1-.234037112,1.5544842463.2525662758,3.4707178599,0,5-.878709892,5.3205652265-5.4466038814,14.4949155525-8,20-.9087633689,1.9592804469-2.7413201579,4.2219449262-4,6-5.2646313133,7.4370019329-14.3023464363,17.2074757444-22.5,21.5-6.5950420927,3.4533513681-16.3269551941,7.5252554694-23,9-10.0193185962,2.2142718549-31.6212540994,1.5361080194-43,1-4.1924544084-.1975269023-9.9928169112-1.8931310622-15-1-.2813153949.0501782166-1.048050398,1.5932496788-3,1l-7.5-6.5V9.2358524039c1.7760878702-3.1976269976,4.3023730024-5.7239121298,7.5-7.5ZM423.4735677303,111.7358524039c3.1241455692-.1740093996,6.3828620405.2453064104,9.5,0,.3572133485-.0281112756.6387869846-.9666224595,1-1,7.84468082-.7248801703,9.8831772546-.7588338425,17-3,4.0224779389-1.2667227706,9.5520330373-2.7118765247,13-5,4.5843840707-3.0422672042,8.6509479999-9.3932111474,10.5-14.5.6569369379-1.8143558057.6070490875-2.1999911718,1-4,.085719871-.3926610669.9459170725-.6303770695,1-1,.2694329135-1.8414051834-.3735556684-4.3324797528,0-6,.0858285348-.383131168.8895284598-.5991901726,1-1,.3630111154-1.3170670219-.9099107833-1.5978495161-1-2-.6689313213-2.9860516562.2804409864-6.520255594-1-10-.6826824926-1.8552675289-2.8796922395-5.0947121641-4-7-4.203091785-7.1481247684-8.7429419694-11.3328246778-16.5-15.5-5.5543128504-1.9658298689-10.3884178105-2.1551451114-16-3-.3765679238-.056694394-.6374827693-.9625783955-1-1-4.285756542-.442406244-9.1408335166.3193915332-13.5,0v69.5c-1.5354766789,1.0272099979-.9308208836,2.7461108799-1,4.5Z"/>
    <path class="cls-1" d="M659.4735677303,36.7358524039h-70v20h54.5c.8563897614,0,3.9339829705,4.6295924469,4.5,5.5v23c-1.1228797074.4918250558-.8311953391,1.733895653-1,2-.3588641665.5657149169-3.2849418651,2.5-3.5,2.5h-53c-.3087141117,0-.7163737677-1.2299025672-1.5-1v22h68.5c.3266272929,0,.5881500433.8887080628,1,1,.7384728057.1995534242,2.2924672945-.2075327055,2.5,0,.1747089381.1747089381-.2248676253.9600631181,0,1.5.1801947649.432671441.9381828188.6487579705,1,1,.4091319276,2.3246664729-.2330886975,5.4775613633,0,8,.0333822841.3612563114.9738189224.6442259789,1,1,.2827003188,3.8416077003.7010333146,15.8694017277,0,19-.0794831668.3549472751-.8015681999.5662906305-1,1-.1458902155.3188700265.126495614.8005918047,0,1-.9457642312,1.4909065419-2.48955555,1.2996396048-3.5,2.5-8.3199113448-.2091063156-16.6855961062.2848363011-25,0-7.3223520636-.2508504162-14.6776479364-.2508504162-22,0-16.9607890067.5810456727-34.0283078484-.4312465931-51,0-.3652578721-.0807743422-.5743369091-.83089852-1-1-.6862469836-.2726226047-2.5436954228-.7107977635-3-1-2.092209443-1.3260258176-2.55722757-4.0384312036-4.5-5.5.1272598551-1.3599481237.1641710487-2.2257837141-1-3,1.0734275715-24.9959909149-1.4405310771-51.1457562389,0-76,.7555163849-13.0353233579-.0062744582-27.4594006652,1-41,.2218184859-2.9848270699-.5677232105-7.466025627,0-10,.0796193127-.3553726435.8025625518-.5665273978,1-1,.1412185435-.3100443715-.1281412803-.7847166972,0-1,.3167637769-.5321778579,4.1941611351-4.4121786374,4.5-4.5.9822924566-.28206442,2.177330276.4995584709,3-1h88c.7647889777-1.1878609688,2.639733998-1.3178209697,4-1,.3799444221.0887725669.5904504465.8691764289,1,1,.594776276.1899910664,1.3743230456-.1796625904,2,0,.8618820821.2474886863,3.3080077831,3.7502261784,4.5,4.5v28l-1,2.5Z"/>
    <path class="cls-1" d="M44.4735677303,48.7358524039c-.1030330101.1030330101-.5509362706,1.5342293005-1,2.5-1.0496092419,2.2573229265-1.8699441653,4.7932709975-3,7-.3481126603.6797808392-1.8492349634,1.4747788547-2,2-.679198834,2.3661294259-.5922694293,4.7050950402-1,7-.0681248289.3834395036-.9547708324.6336476572-1,1-.346546462,2.8069963477-.2629589097,8.1122568474,0,11,.0327791398.3599715884.9530222851.6294886275,1,1,.5436419564,4.2876825308.3638005876,7.8410089302,2,12,3.0870337792,4.2079043196,6.0586742163,9.1708081009,10.5,12.5.2028296909.1520399531.7658865098-.1644507271,1,0,10.23152724,7.1870360527,18.1341040848,7.7866406904,31,7,2.0424130358-1.7358753302,5.823628227-1.7047045312,8-3,.4694019216-.2793705513,2.2206294487-2.0305980784,2.5-2.5.1281370085-.2152974167-.1412060591-.6899457459,0-1,.1974125612-.4334700988.9203939198-.6446256746,1-1,.2582598148-1.1529132858-.2273801161-2.787414274,0-4,.071683618-.3822785102.9287102075-.6176863133,1-1,.2828612128-1.5169312354.1839723275-5.0440259066-1.5-5.5-3.4270974019-.9279651484-10.6009205531.9365588445-14,0-.1828363033-.0503774506-2.2292608679-2.07746571-2.5-2.5-.1496936586-.2336223185-1.9393965862-3.7778401832-2-4-.6297911026-2.3086863792-.5784968584-5.6275763463-1-8-.0681116066-.3833650825-.9540846903-.6331900504-1-1-.1809380767-1.4454848998-.2413327885-4.6469568345,0-6,.06541059-.3667274236.867525343-.5852443083,1-1,.1899697221-.5947629931-.1796163284-1.3742694207,0-2,.1471020607-.5124604121,1.6158307008-1.3105305527,2-2,.2635575848-.4730073505-.1867440456-1.3132559544,0-1.5s1.0269926495.2635575848,1.5,0c.6894694473-.3841692992,1.4875395879-1.8528979393,2-2,.9821302047-.281921049,2.1769667236.4996615761,3-1h43c.3652541655.08075703.5743390776.8309166578,1,1,2.0359811184.8087434715,4.2935446957,1.4728985911,5.5,3.5.1788913564.3005755118-.1274317718,1.4948901754,1,2v53c-1.9133878482,1.6549064453-3.570401504,3.9316774943-5.5,5.5-8.1772671764,6.6462490384-21.3684777746,14.2683887002-32,17-29.4867929996,7.5761923122-62.0698728192.268371485-81.5-25.5-4.5922455373-7.3934403249-8.8300163815-15.2313252834-11-24C-3.7871458147,69.9369699134,1.177968872,38.0716950096,24.9735677303,22.7358524039c8.1084144432-10.4736797547,16.7684120366-15.0944301746,29-19,24.4240993933-7.7986624378,45.4867924901-3.0342755066,67,11,1.5213369887,1.2968006969,6.9140451401,7.1526006391,6.5,8.5-2.5857823823,2.3959705304-4.8820592819,5.1442910562-7.5,7.5-2.5230203727,2.270296503-3.229703497,2.9769796273-5.5,5.5-3.6117816925,4.0138364218-7.8284918296,7.5338591491-11.5,11.5l-6-5c-3.3052463481-1.2704968124-6.8015178187-3.1772623289-10-4-3.3004563023-.8489682224-5.7107524444-.588269565-9-1-.3665195602-.0458789603-.6153352746-.9297453651-1-1-2.7870170652-.5090169531-4.2666254625.9082000937-5,1-1.8970335247.237460521-4.1419537144-.2718767908-6,0-.3697076344.0540971051-.6076077285.9147654727-1,1-.9081769562.1972720646-2.166697737-.2273181649-3,0-.4566157646.1245611134-2.419702292,1.7796326691-3,2-3.0693277389,1.165573381-6.1862149369,1.8771610991-9,4-1.3301173712,1.0034970103-2.7821878966,3.3214405306-4,4-.4730073505.2635575848-1.3132559544-.1867440456-1.5,0Z"/>
    <path class="cls-1" d="M209.4735677303,110.7358524039c1.7745557412-.1564004511,3.7788211541.230157448,5.5,0,6.6456199563-.8886577553,8.883038955-.3073908144,15,0,10.8743394618.5464595963,22.0860967617-.4033763465,33,0l3.5,2.5v30l-3.5,3.5h-84c-3.1977521483-1.7762011414-5.7237988586-4.3022478517-7.5-7.5v-63c2.6576918447-2.327434278.1574605557-7.1122996234,0-9-1.6582418952-19.8796697741,2.0866968035-39.2020053759,1-59,.859166335-1.0781282922,3.112813248-5.1016700836,4.5-5.5.6256767765-.1796627438,1.4052236799.1899911373,2,0,.4147604037-.1324881273.6332720145-.9345828016,1-1,5.9850996912-1.0676263317,14.6630445444.7838389675,21,0,1.5917235847.769933823,2.7494192812,2.1154337282,4,3,.3152025536.2229504609,1.556211856.025252576,2.5,1.5.1390821152.2173273658-.1529296392.7252663946,0,1,.3523522826.6329905273,2,2.8197224335,2,3v100.5Z"/>
    <path class="cls-1" d="M315.9735677303,1.7358524039c3.1991177199-.3302500163,12.0876520542-.5195032305,15,0,.3708399497.0661502525.5927113755.8835571267,1,1,.6470736857.1849968662,1.4581689942-.2160568665,2,0,.3910657104.1559387172.5877693173.809036539,1,1,.3065511554.142008036.7831809451-.1290545778,1,0,1.9606903051,1.1670379232,3.3093458124,3.899733342,4.5,5.5v131c-1.2003708736,1.0103746519-1.0090868828,2.5543573536-2.5,3.5-.2190111418.1389123708-.7250029621-.1520895219-1,0-.6458594446.3571982263-2.6624368385,1.9270011767-3,2-3.7203668391.8045380317-9.8363179096-.5140641563-14,0-.3660640728.0451956741-.6152577309.9297276946-1,1-3.132459117.5721365742-5.0787089426-1.2940470772-8-1-1.4640413838-1.942393361-4.1702321031-2.4081890952-5.5-4.5-.1444341596-.2272042744.152344391-.7426947999,0-1-.380736908-.6430534503-1.9297289312-2.6750505956-2-3-.6966201934-3.2213302105.2176411608-9.207514339,0-13-.020153817-.3511884495-.982696113-.6508832168-1-1-1.7917626479-36.1499361655,1.3378718605-73.7003748239,0-110,1.4395544394-.9388524779.9853437675-2.3670720798,1-4,1.9450878249-1.41521236,2.4188490708-4.2621688138,4.5-5.5.2154083631-.1281210247.6899268421.141135905,1,0,.4334422784-.1972897901.6445777207-.9203853345,1-1,1.4061521084-.3149783685,3.4544761685.2326945329,5,0,.376569054-.05669635.6374817369-.9625766624,1-1Z"/>
  </g>
</svg>